<svg id="ab6f8699-530a-465f-bc42-bb735d7a1b39" data-name="Layer 1" xmlns="http://www.w3.org/2000/svg" width="1144" height="714.9" viewBox="0 0 1144 714.9"><title>barber</title><path d="M 1172 586.8 a 180 180 0 0 0 -76 -147.4 a 184.7 184.7 0 0 0 1 -18.8 c 0 -99.1 -79.2 -179.5 -177 -179.5 a 174.3 174.3 0 0 0 -85.9 22.5 c -69.2 -45.5 -159.5 -73.1 -258.3 -73.1 c -160.8 0 -299.1 73 -360.5 177.6 c -3.4 -0.2 -6.8 -0.3 -10.3 -0.3 c -97.7 0 -177 80.4 -177 179.5 A 180.5 180.5 0 0 0 57.1 646 h 0 c 0 89.2 84.2 161.5 188 161.5 H 998.2 c 81.5 0 147.6 -56.8 147.6 -126.8 h 0 A 180.5 180.5 0 0 0 1172 586.8 Z" transform="translate(-28,-92.6)" fill="#ffffff" opacity="0.1"/><path d="M 856.6 256.7 c -7.5 3.2 -15.1 6.4 -22.1 10.6 c -3.2 1.9 -6.3 4 -9.5 5.7 c -3.5 1.9 -7.3 3.3 -11 4.8 a 245.2 245.2 0 0 0 -29.8 14.6 c 0.8 -10.8 -0.7 -22.4 -7.2 -30.8 a 27 27 0 0 0 -3.1 -3.5 c -4.5 -4.2 -11 -5.3 -15.5 -9 c 2.7 -4.8 8.8 -9.1 12.9 -12.8 q 6.7 -5.9 13.8 -11.2 a 196.8 196.8 0 0 1 30.4 -18.4 c 6.8 -3.3 13.8 -6.3 21.3 -7.3 a 4.6 4.6 0 0 1 2.8 0.3 c 1.2 0.6 1.6 2.1 1.9 3.4 c 1.4 6.5 2.1 13.1 3.3 19.6 a 83.5 83.5 0 0 0 2.3 9.9 a 120.7 120.7 0 0 0 4.3 11.3 Q 853.9 250.3 856.6 256.7 Z" transform="translate(-28,-92.6)" fill="#fbbebe"/><path d="M 642.6 439 A 63 63 0 0 1 528.8 476.3 A 62.8 62.8 0 0 1 516.6 439 a 63 63 0 0 1 126 0 Z" transform="translate(-28,-92.6)" fill="#be6f72"/><path d="M 557 494.5 c 3.4 5.8 6.8 11.7 8.9 18 s 3 13.3 1.2 19.8 c 21.5 -11.3 47 -10.4 70.6 -16.1 a 2.5 2.5 0 0 0 1.6 -0.9 a 2.6 2.6 0 0 0 0 -2.1 a 172.9 172.9 0 0 1 -5.6 -56.2 l -12.3 7.3 a 157.8 157.8 0 0 1 -16.8 9 c -8.2 3.6 -16.8 5.7 -25.3 8.2 c -6.7 2 -20.1 4.6 -24.4 10.5 A 11.9 11.9 0 0 1 557 494.5 Z" transform="translate(-28,-92.6)" fill="#be6f72"/><path d="M 522.3 409.8 c -4.1 1.6 -8.9 3.5 -12.7 1.2 c -2.8 -1.7 -3.9 -5.3 -3.7 -8.5 s 1.4 -6.3 2.4 -9.4 c 2 -6.4 3.1 -13 5.3 -19.3 s 5.9 -12.4 11.7 -15.8 c 10.6 -6.2 24.4 -1.1 36.2 -4.5 c 5 -1.4 9.3 -4.3 14 -6.6 s 9.9 -4 14.9 -2.8 c 5.9 1.4 10.2 6.3 15.7 8.8 c 6 2.8 13.2 2.6 18.6 6.3 c 3.9 2.6 6.3 6.8 8.5 11 a 208.8 208.8 0 0 1 16.4 41.9 a 63.5 63.5 0 0 1 2.7 16 c 0.1 6.9 -1.8 13.7 -3.7 20.4 l -3 10.6 c -1.1 4 -2.3 8 -4.3 11.6 s -5.3 6.7 -9.3 7.7 c -5 1.3 -10.8 -1.2 -13 -5.9 c -1.3 -2.9 -1.3 -6.2 -1.4 -9.4 a 104.7 104.7 0 0 0 -2 -18.6 c -0.6 -3.1 -1.4 -6.3 -3.5 -8.6 c -2.7 -3 -7 -4 -11 -4.1 c -4.7 -0.1 -9.8 1.2 -12.5 5 c -2.2 3.1 -2.6 7.4 -5.5 9.8 a 9.1 9.1 0 0 1 -4.5 1.8 a 14.9 14.9 0 0 1 -15.7 -9.4 c -0.9 -2.6 -1.4 -5.9 -3.9 -7.2 c -1.3 -0.7 -2.9 -0.5 -4.2 -0.9 c -4.3 -1.3 -5.4 -6.7 -5.8 -11.1 c -0.5 -5.2 1.3 -15.4 -5.2 -15.8 C 536.7 403.7 528.7 407.7 522.3 409.8 Z" transform="translate(-28,-92.6)" fill="#3f3d56"/><path d="M 537.4 478.1 c -2.2 1.1 -4.7 2.3 -5.5 4.6 c -0.3 0.9 -0.4 1.9 -0.7 2.8 c -1.4 4.1 -6.9 4.9 -9.8 8.1 a 12.8 12.8 0 0 0 -2.5 5.6 a 40.7 40.7 0 0 0 1.8 24.2 a 19.6 19.6 0 0 0 4 6.6 c 5.1 5.2 13.8 5.1 20.2 1.6 s 10.7 -9.7 14.4 -16 a 55.7 55.7 0 0 0 4.9 -10 a 61 61 0 0 0 2.4 -10.9 c 2.2 -14.4 5.1 -30.4 4.1 -45 c -3 -0.2 -8.7 -0.4 -11.4 1.5 c -3.3 2.4 -2.4 7.1 -3.6 10.6 C 552.9 470.1 544.6 474.5 537.4 478.1 Z" transform="translate(-28,-92.6)" fill="#3f3d56"/><path d="M 540 480 c -3.8 0.2 -10.5 -3.9 -14.2 -3.7 A 117.1 117.1 0 0 1 519 462.4 c 2 -2.9 5.2 -3.6 10.1 0 C 533 465.2 538.4 474.7 540 480 Z" transform="translate(-28,-92.6)" fill="#3f3d56"/><path d="M 596.5 322 c -4.1 2.1 -6.6 2.3 -8.6 1.8 s -6 1.6 -6 1.6 c -35.3 12.1 -36.6 17.8 -36.6 17.8 l 40.8 -14.4 c 7.8 -3.4 8 -2.2 8 -2.2 c 6 5.6 13.6 1.8 13.6 1.8 s 10.6 -5 7.5 -9.8 S 600.6 319.9 596.5 322 Z m 17 -0.9 s -3 8 -13.8 6.7 c 0 0 -5.3 -0.8 -3.1 -4.7 c 0 0 11 -4.6 13.9 -4.3 S 613.5 321.1 613.5 321.1 Z" transform="translate(-28,-92.6)" fill="#e8e8f0"/><path d="M 596.5 322 c -4.1 2.1 -6.6 2.3 -8.6 1.8 s -6 1.6 -6 1.6 c -35.3 12.1 -36.6 17.8 -36.6 17.8 l 40.8 -14.4 c 7.8 -3.4 8 -2.2 8 -2.2 c 6 5.6 13.6 1.8 13.6 1.8 s 10.6 -5 7.5 -9.8 S 600.6 319.9 596.5 322 Z m 17 -0.9 s -3 8 -13.8 6.7 c 0 0 -5.3 -0.8 -3.1 -4.7 c 0 0 11 -4.6 13.9 -4.3 S 613.5 321.1 613.5 321.1 Z" transform="translate(-28,-92.6)" opacity="0.1"/><path d="M 598.8 299.7 c -6.1 0.2 -7.4 4.8 -7.4 4.8 a 8.8 8.8 0 0 0 -0.6 10.5 L 580 325.8 a 10.9 10.9 0 0 0 -5.1 4 s -23.8 21 -23.4 22.9 c 0 0 3.9 2 28.5 -20.4 l 6.5 -5.7 s 1.4 -10.7 11.5 -12.7 c 0 0 1 0.4 1.5 -1.9 a 11.3 11.3 0 0 1 2.2 -3.1 C 603.1 307.6 604.9 299.5 598.8 299.7 Z m 1.7 7.2 s -3.3 8.4 -7.9 6 s -0.1 -8.1 -0.1 -8.1 C 600.5 297 600.5 306.9 600.5 306.9 Z" transform="translate(-28,-92.6)" fill="#e8e8f0"/><circle cx="552.2" cy="236.1" r="1.3" opacity="0.1"/><path d="M 693.1 287.9 a 85.2 85.2 0 0 0 -11.7 -5.1 A 77.8 77.8 0 0 0 665 280 q -26.3 -2.5 -52.7 -2.9 c -3.1 0 -6.3 -0.1 -9.2 1 a 19.7 19.7 0 0 0 -7 4.6 a 34.9 34.9 0 0 0 -8 11.6 a 5.1 5.1 0 0 0 -0.5 3.6 c 0.4 1.2 2 1.9 2.9 1.1 A 14.9 14.9 0 0 0 585.6 315 a 9.1 9.1 0 0 0 -4.9 7.5 a 47.7 47.7 0 0 0 21.9 -1.1 c -2.1 -0.5 -4.3 1.4 -4.4 3.6 a 5.9 5.9 0 0 0 3.3 5.3 a 13.3 13.3 0 0 0 6.4 1.3 c 8.5 0 16.7 -2.9 25.2 -3.2 c 6.5 -0.3 13.1 0.9 19.3 -1 c 7.2 -2.2 13.6 -8.5 20.9 -7.2 c 5.9 1.1 9.7 6.5 13.6 11.1 c 6.1 7.3 13.7 13.2 21.3 19.1 c 5.8 4.5 11.9 9.2 19.1 10.7 a 10.6 10.6 0 0 0 6.5 -0.3 a 11.1 11.1 0 0 0 4.2 -4 c 7.8 -11 7.8 -24.9 7.3 -37.7 c -0.2 -6.6 -1.7 -7.5 -7.8 -10.2 Q 726.8 304 716.2 299 Q 704.6 293.6 693.1 287.9 Z" transform="translate(-28,-92.6)" fill="#fbbebe"/><path d="M 774.1 312.6 a 21.1 21.1 0 0 1 -3.8 1.8 c -2.2 0.5 -4.4 -0.4 -6.5 -1.1 c -9 -3 -19 -2.3 -27.7 -6 a 63 63 0 0 1 -10.4 46.9 c -1.8 2.6 -4.2 5.2 -7.3 5.4 c 1.4 4.3 5.7 6.8 9.7 8.8 a 104.5 104.5 0 0 0 20.2 7.1 c 2 0.5 4.4 0.7 5.6 -1 c 0.7 -1 1 -2.7 2.2 -2.6 c 1.9 2 1.3 6.1 3.9 7 a 5 5 0 0 0 2.5 0 l 5.8 -1 a 10.6 10.6 0 0 0 4.9 -1.7 a 9.6 9.6 0 0 0 2.2 -2.8 c 6.5 -11.1 9 -23.9 10 -36.5 c 0.5 -6.3 1.1 -12.9 0.7 -19.2 C 785.7 312 778.8 310.4 774.1 312.6 Z" transform="translate(-28,-92.6)" fill="#e8e8f0"/><path d="M 774.1 312.6 a 21.1 21.1 0 0 1 -3.8 1.8 c -2.2 0.5 -4.4 -0.4 -6.5 -1.1 c -9 -3 -19 -2.3 -27.7 -6 a 63 63 0 0 1 -10.4 46.9 c -1.8 2.6 -4.2 5.2 -7.3 5.4 c 1.4 4.3 5.7 6.8 9.7 8.8 a 104.5 104.5 0 0 0 20.2 7.1 c 2 0.5 4.4 0.7 5.6 -1 c 0.7 -1 1 -2.7 2.2 -2.6 c 1.9 2 1.3 6.1 3.9 7 a 5 5 0 0 0 2.5 0 l 5.8 -1 a 10.6 10.6 0 0 0 4.9 -1.7 a 9.6 9.6 0 0 0 2.2 -2.8 c 6.5 -11.1 9 -23.9 10 -36.5 c 0.5 -6.3 1.1 -12.9 0.7 -19.2 C 785.7 312 778.8 310.4 774.1 312.6 Z" transform="translate(-28,-92.6)" opacity="0.1"/><path d="M 438.9 636.9 c -2.9 -3.7 -5.8 -7.5 -10 -9.5 a 27.4 27.4 0 0 0 -7.6 -1.9 c -14.1 -2 -28.2 -4.1 -42.4 -4.5 c -4.6 -0.1 -9.6 0 -13.4 2.7 c -4.3 3.1 -6 8.8 -6.2 14.1 a 39.7 39.7 0 0 0 15.3 33 c 8.5 6.5 19.2 9.2 29.7 11.3 c 5.5 1.1 11.1 2.1 16.6 3 s 11.2 1.5 16.6 3.3 c 11.5 3.7 21.6 12 33.6 12.7 a 2.6 2.6 0 0 0 1.6 -0.3 a 2.8 2.8 0 0 0 1 -1.7 c 2.6 -9.3 11.8 -31.7 0 -38.3 c -6.2 -3.4 -13.1 -3.6 -19.1 -7.9 S 443.5 642.8 438.9 636.9 Z" transform="translate(-28,-92.6)" fill="#be6f72"/><path d="M 337.8 699 c -7.8 -6.8 -18.5 -10.4 -24.2 -19 c -2.5 -3.8 -3.8 -8.3 -5 -12.6 l -3.7 -13.2 a 6.9 6.9 0 0 1 -0.4 -2.5 c 0.3 -2.8 3.5 -4.1 6.3 -4.5 c 14 -2.2 28.6 3.5 39.1 13 s 17.2 22.7 21.2 36.3 a 3.4 3.4 0 0 1 0.1 2.2 a 3.4 3.4 0 0 1 -1.5 1.5 c -5.1 3 -11.9 7.4 -17.8 8.3 S 342 702.6 337.8 699 Z" transform="translate(-28,-92.6)" fill="#be6f72"/><path d="M 679.6 642 l 41 16.4 a 17.5 17.5 0 0 1 10.5 20.3 L 700.6 807 H 624.3 l 13.3 -146 S 666.6 637 679.6 642 Z" transform="translate(-28,-92.6)" fill="#3f3d56"/><path d="M 719.2 626.6 c -0.8 1.7 -1.9 3.3 -1.7 5.1 c 0.1 1.1 0.7 2.1 0.6 3.2 c -0.2 2.1 -2.6 3.3 -4.7 3.3 s -4.2 -0.7 -6.3 -0.3 c -3.4 0.6 -5.7 3.7 -8.6 5.5 c -4.1 2.5 -9.2 2.4 -14 2.8 c -10 0.9 -19.5 4.7 -28.5 8.9 c -6.2 2.9 -12.7 6.6 -15 13 c -3.3 9 3.1 18.5 4.6 28 a 53.7 53.7 0 0 1 0.3 9.7 c -1.1 33.6 -2.9 67.6 -4.8 101.2 l -366.6 0.4 l 18.1 -31.6 c 17.6 -30.9 35.7 -62.3 62.2 -85.9 a 55.9 55.9 0 0 1 13.1 -8.8 l 21.3 19 a 21.4 21.4 0 0 0 5.8 4.1 c 4 1.6 8.5 0.7 12.8 0.8 c 8.3 0.3 15.8 4.5 22.9 8.6 a 131.7 131.7 0 0 1 15.1 9.6 c 2.8 2.2 6.9 3.5 9.8 5.5 l -0.7 -35.9 c -0.1 -3.2 -0.1 -6.6 0.8 -9.7 c 1.9 -6 7.3 -10.2 9.8 -15.9 c 1.2 -2.6 1.7 -5.4 2.7 -8 a 54.5 54.5 0 0 1 5.1 -9.7 l 13.3 -21.3 c 3.3 -5.3 6.5 -10.5 10.1 -15.6 c 15.6 -22.2 36.5 -40 56.9 -57.9 a 23.8 23.8 0 0 1 3.4 -14.6 a 22.4 22.4 0 0 0 2.6 -4.7 a 19.6 19.6 0 0 0 0.4 -6 c 0 -0.5 0 -1 0 -1.5 a 13.9 13.9 0 0 1 3.9 -8.7 c 2.3 -2.4 5.5 -3.9 8.6 -5.3 A 279.3 279.3 0 0 1 622 497.2 c 2.7 -0.6 5.6 -1.2 8.3 -0.4 c 0.8 2.6 3.6 3.5 6.3 4.2 l 1.8 0.4 a 29.6 29.6 0 0 1 12.7 6.2 c 3.9 3.4 6.5 7.9 9.1 12.3 c 19.5 33.4 28.4 77.3 58.6 101.6 C 720.2 622.7 719.9 625 719.2 626.6 Z" transform="translate(-28,-92.6)" fill="#ffffff"/><path d="M 842 216 c -10.5 23.2 -31.3 46 -58.4 46 a 66 66 0 0 1 -6.6 -0.3 a 27 27 0 0 0 -3.1 -3.5 c -4.5 -4.2 -11 -5.3 -15.5 -9 c 2.7 -4.8 8.8 -9.1 12.9 -12.8 q 6.7 -5.9 13.8 -11.2 a 196.8 196.8 0 0 1 30.4 -18.4 c 6.8 -3.3 13.8 -6.3 21.3 -7.3 a 4.6 4.6 0 0 1 2.8 0.3 c 1.2 0.6 1.6 2.1 1.9 3.4 C 842.7 209.6 840.8 209.5 842 216 Z" transform="translate(-28,-92.6)" opacity="0.1"/><circle cx="755.6" cy="100.4" r="67" fill="#fbbebe"/><path d="M 923.1 415.8 a 121.8 121.8 0 0 1 -5.7 23.8 c -1 2.8 -2.2 5.5 -3.5 8.3 c -7.5 15.8 -11.5 32.9 -13.5 50.2 a 27.8 27.8 0 0 1 -0.8 4 c -1.5 5.6 -4.6 10.6 -6.9 15.9 a 129.2 129.2 0 0 0 -6 17.5 a 9.8 9.8 0 0 0 -0.6 4.7 c 0.4 1.7 1.6 3 2.5 4.5 c 4.4 7.7 -0.7 17 -2.4 25.7 c -0.6 3 -0.8 6.3 -2.8 8.6 c -1.7 2 -4.2 2.9 -6.7 3.8 a 757.3 757.3 0 0 1 -106.9 27.8 c -5.4 1 -11 1.9 -16.4 0.9 s -10.7 -4.3 -12.6 -9.5 c -1.1 -3 -0.9 -6.3 -0.8 -9.4 c 0.2 -6.7 0 -13.4 -0.4 -20.1 c -1.2 -22.1 -3.8 -44.4 2 -65.6 c 1.7 -6.3 4.2 -12.3 6.1 -18.5 c 3.8 -12.1 4.8 -24.6 5.8 -37.1 c 0.8 -10.3 1.6 -20.7 3.9 -30.9 c 1.7 -7.6 0.6 -15.5 0.5 -23.3 a 87.6 87.6 0 0 1 15 -50 c 1.7 -2.5 3.6 -5.1 4.5 -8 c 1.3 -4.2 0.4 -8.7 -0.2 -13.1 a 91.8 91.8 0 0 1 1.7 -33.3 a 34 34 0 0 1 4.6 -11.5 c 2.5 -3.6 6.1 -6.4 9.6 -8.9 a 253 253 0 0 1 67.8 -34.8 c 2.2 5.6 4.4 12.2 6.1 18 c 0.2 0.8 0.4 1.8 -0.3 2.3 s -1.3 0.2 -2 0.3 a 3.6 3.6 0 0 0 -3.1 2.6 a 6.5 6.5 0 0 0 0.4 4.2 c 1.4 3.5 4.3 6.1 7.1 8.6 L 883.5 286 a 34.7 34.7 0 0 0 5.5 4.2 c 1.8 1 3.7 1.7 5.5 2.6 c 7.3 3.7 12.4 10.9 15.2 18.7 s 1.6 17 5.2 24.3 C 927.4 360.1 927.3 388.9 923.1 415.8 Z" transform="translate(-28,-92.6)" fill="#e8e8f0"/><path d="M 913.8 670.1 a 107.2 107.2 0 0 1 -0.3 52.9 c -0.8 3.1 -1.8 6.3 -1.1 9.4 c 0.4 1.8 1.2 3.5 1.4 5.3 a 15.4 15.4 0 0 1 -0.5 4.9 c -4.4 21 -2.9 42.8 -1.1 64.3 c -0.8 0 -1 0.3 -1.8 0.3 H 891.1 c -0.3 -5.6 -7.3 -9.8 -10.8 -14.3 A 37.1 37.1 0 0 1 874 761.6 c 3 -12 11.8 -21.6 16.4 -33.1 c 5 -12.6 4.6 -26.9 9.9 -39.4 C 903.3 681.9 909 676.3 913.8 670.1 Z" transform="translate(-28,-92.6)" fill="#3f3d56"/><path d="M 913.8 670.1 a 107.2 107.2 0 0 1 -0.3 52.9 c -0.8 3.1 -1.8 6.3 -1.1 9.4 c 0.4 1.8 1.2 3.5 1.4 5.3 a 15.4 15.4 0 0 1 -0.5 4.9 c -4.4 21 -2.9 42.8 -1.1 64.3 c -0.8 0 -1 0.3 -1.8 0.3 H 891.1 c -0.3 -5.6 -7.3 -9.8 -10.8 -14.3 A 37.1 37.1 0 0 1 874 761.6 c 3 -12 11.8 -21.6 16.4 -33.1 c 5 -12.6 4.6 -26.9 9.9 -39.4 C 903.3 681.9 909 676.3 913.8 670.1 Z" transform="translate(-28,-92.6)" opacity="0.1"/><path d="M 873.3 573.8 c -16.4 -2.6 -32.3 5.6 -48.1 10.6 c -24.2 7.7 -50.8 8.1 -73.1 20.1 a 18.7 18.7 0 0 0 -5.3 3.9 a 15.3 15.3 0 0 0 -3.3 7.8 A 27.8 27.8 0 0 0 747 634.6 c 1.4 2.4 3.1 4.5 4.2 7.1 c 2.6 6 0.8 12.9 0.4 19.5 c -1 14.7 4.7 28.9 5.8 43.5 c 0.7 8.6 -0.2 17.4 1.8 25.9 c 1.3 5.3 3.7 10.3 4.7 15.6 s 0.6 10.6 0.9 15.8 c 0.9 15.1 7.8 29.8 6.1 44.9 l 130 0.4 c -4.8 -16.8 -8.8 -34.1 -4.5 -51 a 120.2 120.2 0 0 1 5.6 -15.7 c 7.3 -17.6 14.7 -35.2 18.8 -53.8 s 4.4 -38.4 -2.4 -56.2 c -7.6 -19.8 -23.6 -36.3 -27.1 -57.2 C 885.3 572.8 879.4 574.8 873.3 573.8 Z" transform="translate(-28,-92.6)" fill="#3f3d56"/><path d="M 736.9 160.3 c -1.3 -2.6 -4.8 -4.4 -7.2 -2.7 S 727.6 163 727 166 c -1.1 5.9 -7 9.9 -13 10.9 c -2.8 0.5 -5.9 0.3 -8.1 -1.6 a 11.3 11.3 0 0 1 -3 -4.9 c -6 -16 -2.4 -34.7 7.5 -48.6 A 34.2 34.2 0 0 1 718 113.6 c 8.3 -6 19.3 -6 29.6 -5.7 a 14 14 0 0 0 6.2 -0.7 a 17 17 0 0 0 4.1 -3 c 9.7 -8.5 23.1 -12.1 36 -11.5 s 25.4 5 36.8 10.9 c 5.5 2.8 10.9 6 15.2 10.4 c 10.3 10.6 12.8 26.4 14.9 41.1 c 2.2 15.8 4.3 32.1 0.7 47.7 c -2.1 8.8 -6 17.4 -5.5 26.5 a 213.9 213.9 0 0 1 -25.3 5.6 c -4 0.6 -8.6 1 -11.6 -1.8 a 11.4 11.4 0 0 1 -2.6 -4.7 c -3.2 -9.4 -2.1 -20.1 -6.9 -28.7 a 24.1 24.1 0 0 0 -19.8 -12.2 c -3.1 -0.1 -6.7 0.7 -8.3 3.4 a 20.7 20.7 0 0 0 -1.4 4.1 c -2.2 6.7 -11.3 10 -17.3 6.3 c -3 -1.9 -5 -5 -7.8 -7.3 c -3.4 -3 -7.8 -4.5 -11.7 -6.8 C 730.3 179 741.9 170.8 736.9 160.3 Z" transform="translate(-28,-92.6)" fill="#3f3d56"/><path d="M 636.6 501 c -5.5 1.8 -10.4 4.9 -15.8 7.2 c -9.4 3.9 -19.7 4.8 -29.5 7.3 a 121.2 121.2 0 0 0 -27.1 10.9 c -0.6 0.3 -2.6 2 -4.2 3.1 c 0 -0.5 0 -1 0 -1.5 a 13.9 13.9 0 0 1 3.9 -8.7 c 2.3 -2.4 5.5 -3.9 8.6 -5.3 A 279.3 279.3 0 0 1 622 497.2 c 2.7 -0.6 5.6 -1.2 8.3 -0.4 C 631.1 499.4 633.9 500.3 636.6 501 Z" transform="translate(-28,-92.6)" fill="#3f3d56"/><path d="M 494.9 757.5 c 10.8 12 20.4 25.1 32.9 35.2 c -14.4 -19.2 -35.2 -32 -53.9 -46.5 c -3.8 -2.9 -11.4 -7.1 -13.7 -11.4 c -3.6 -6.7 4.4 -1.9 7.7 -0.1 C 478.3 740.4 487 748.7 494.9 757.5 Z" transform="translate(-28,-92.6)" opacity="0.1"/><path d="M 882 407.2 c -0.5 4.3 -2.1 8.4 -3.8 12.4 c -4 10 -8.3 19.9 -14.3 28.8 c -4.2 6.1 -9.1 11.6 -13.4 17.6 a 202 202 0 0 0 -12.2 19.7 Q 828 503.8 818.3 522.3 c -3.1 5.9 -6.2 11.8 -10.2 17.1 a 118 118 0 0 1 -9 10.2 c -7 7.4 -14.2 14.2 -20.4 22.2 c -3.1 4 -8.3 5.5 -13.1 6.9 a 17.8 17.8 0 0 1 -5 0.9 a 17.3 17.3 0 0 1 -5 -1.1 a 126.7 126.7 0 0 1 -15.8 -6 c -1.2 -22.1 -3.8 -44.4 2 -65.6 c 1.7 -6.3 4.2 -12.3 6.1 -18.5 c 3.8 -12.1 4.8 -24.6 5.8 -37.1 c 1.2 -2.5 2.5 -5 3.7 -7.4 c 8.3 -16.5 15.4 -34.6 13.2 -53 a 99 99 0 0 1 -1.1 -10 a 37.7 37.7 0 0 1 2 -12.1 a 66.7 66.7 0 0 1 38 -41 a 21.3 21.3 0 0 1 9 -2 c 4 0.2 7.8 2.3 11.7 1.5 c 13.2 5.8 23.9 15.7 31.9 27.8 s 8.4 28.1 17.1 39.6 C 881.8 398.2 882.5 402.9 882 407.2 Z" transform="translate(-28,-92.6)" opacity="0.1"/><polygon points="564.9,260.3 564.4,259.4 548.1,266.9 545.4,268.2 542.6,269.4 565.7,319.4 568.4,318.1 571.1,316.9 587.5,309.3 587.1,308.4 570.7,316 570.3,315.1 586.6,307.5 586.2,306.6 569.9,314.2 569.5,313.3 585.8,305.7 585.4,304.8 569,312.3 568.6,311.4 585,303.9 584.5,303 568.2,310.5 567.8,309.6 584.1,302.1 583.7,301.2 567.4,308.7 567,307.8 583.3,300.3 582.9,299.4 566.5,306.9 566.1,306 582.5,298.4 582,297.5 565.7,305.1 565.3,304.2 581.6,296.6 581.2,295.7 564.9,303.3 564.4,302.4 580.8,294.8 580.4,293.9 564,301.4 563.6,300.5 579.9,293 579.5,292.1 563.2,299.6 562.8,298.7 579.1,291.2 578.7,290.3 562.3,297.8 561.9,296.9 578.3,289.4 577.9,288.5 561.5,296 561.1,295.1 577.4,287.6 577,286.6 560.7,294.2 560.3,293.3 576.6,285.7 576.2,284.8 559.8,292.4 559.4,291.5 575.8,283.9 575.3,283 559,290.6 558.6,289.6 574.9,282.1 574.5,281.2 558.1,288.7 557.7,287.8 574.1,280.3 573.7,279.4 557.3,286.9 556.9,286 573.2,278.5 572.8,277.6 556.5,285.1 556.1,284.2 572.4,276.6 572,275.8 555.6,283.3 555.2,282.4 571.6,274.8 571.1,273.9 554.8,281.5 554.4,280.6 570.7,273 570.3,272.1 554,279.6 553.5,278.8 569.9,271.2 569.5,270.3 553.1,277.8 552.7,276.9 569,269.4 568.6,268.5 552.3,276 551.9,275.1 568.2,267.6 567.8,266.7 551.5,274.2 551,273.3 567.4,265.8 567,264.9 550.6,272.4 550.2,271.5 566.5,263.9 566.1,263 549.8,270.6 549.4,269.7 565.7,262.1 565.3,261.2 548.9,268.8 548.5,267.9 564.9,260.3"/><path d="M 644.2 462.8 c -2.1 3.6 -5.3 6.7 -9.3 7.7 c -5 1.3 -10.8 -1.2 -13 -5.9 c -1.3 -2.9 -1.3 -6.2 -1.4 -9.4 a 104.7 104.7 0 0 0 -2 -18.6 c -0.6 -3.1 -1.4 -6.3 -3.5 -8.6 c -2.7 -3 -7 -4 -11 -4.1 c -4.7 -0.1 -9.8 1.2 -12.5 5 c -2.2 3.1 -2.6 7.4 -5.5 9.8 a 9.1 9.1 0 0 1 -4.5 1.8 a 14.9 14.9 0 0 1 -15.7 -9.4 c -0.9 -2.6 -1.4 -5.9 -3.9 -7.2 c -1.3 -0.7 -2.9 -0.5 -4.2 -0.9 c -4.3 -1.3 -5.4 -6.7 -5.8 -11.1 c -0.5 -5.2 1.3 -15.4 -5.2 -15.8 c -6.9 -0.4 -14.9 3.6 -21.3 5.8 c -4.1 1.6 -8.9 3.5 -12.7 1.2 c -2.8 -1.7 -3.9 -5.3 -3.7 -8.5 s 1.4 -6.3 2.4 -9.4 c 1.7 -5.2 2.7 -10.7 4.2 -16 a 47.5 47.5 0 0 0 -1.9 4.6 c -2.2 6.3 -3.3 13 -5.3 19.3 c -1 3.1 -2.2 6.2 -2.4 9.4 s 1 6.8 3.7 8.5 c 3.8 2.3 8.6 0.4 12.7 -1.2 c 6.4 -2.1 14.4 -6.1 21.3 -5.8 c 6.5 0.3 4.7 10.6 5.2 15.8 c 0.4 4.4 1.5 9.8 5.8 11.1 c 1.4 0.4 2.9 0.3 4.2 0.9 c 2.5 1.2 3 4.5 3.9 7.2 a 14.9 14.9 0 0 0 15.7 9.4 a 9.1 9.1 0 0 0 4.5 -1.8 c 2.9 -2.4 3.3 -6.7 5.5 -9.8 c 2.7 -3.8 7.9 -5.1 12.5 -5 c 4 0.1 8.3 1.1 11 4.1 c 2.1 2.3 2.9 5.5 3.5 8.6 a 104.7 104.7 0 0 1 2 18.6 c 0.1 3.2 0 6.5 1.4 9.4 c 2.2 4.7 8 7.2 13 5.9 c 4 -1.1 7.2 -4.2 9.3 -7.7 a 40 40 0 0 0 3.7 -9.2 C 644.6 461.9 644.4 462.4 644.2 462.8 Z" transform="translate(-28,-92.6)" opacity="0.1"/><path d="M 695.6 456.1 c -8 -7.7 -15.2 -16.2 -22.4 -24.7 c -6.9 -8.1 -13.8 -16.3 -19.3 -25.3 c -3.4 -5.6 -6.5 -11.7 -11.8 -15.7 c -4 -3 -8.9 -4.4 -13.3 -6.7 c -3.2 -1.6 -6.1 -3.7 -9.3 -5.5 a 44 44 0 0 0 -22.3 -5.3 c -3.2 0.1 -6.9 0.9 -8.6 3.6 c -0.6 0.9 -0.8 2.1 -1.4 3 c -1.8 3 -6.1 3.9 -7.6 7 c -2.5 5.3 5 10.2 5.5 16 c 0.2 2.9 -1.4 5.6 -1.9 8.5 c -0.8 5 1.8 9.8 4.3 14.1 c 5.3 9.3 11.9 19.6 22.4 21.9 c 3.7 0.8 7.7 0.6 11.3 1.7 a 26.7 26.7 0 0 1 8 4.8 A 131 131 0 0 1 655 481 c 3.4 4.8 6.4 9.8 9.8 14.5 a 117.8 117.8 0 0 0 41.6 35.7 l 12.3 -39 c 1.9 -6 3.4 -14.2 -2 -18.9 C 710 467.3 702.2 462.5 695.6 456.1 Z" transform="translate(-28,-92.6)" fill="#fbbebe"/><path d="M 829.2 322.4 c -3.9 0.8 -7.8 -1.3 -11.7 -1.5 a 21.2 21.2 0 0 0 -9 2 a 66.8 66.8 0 0 0 -38 41 A 38.1 38.1 0 0 0 768.4 376 c 0.1 3.4 0.8 6.7 1.1 10 c 2.2 18.3 -4.9 36.5 -13.2 53 c -4.6 9.1 -9.8 18.7 -8.7 28.9 c 0.1 1.4 0.4 2.9 -0.5 4 c -1 1.3 -3.2 1.4 -4.1 2.8 s -0.1 3.5 -0.8 5.1 c -1 2.2 -4.3 1.9 -6.6 1.2 a 53 53 0 0 1 -17.4 -9.9 c -8.3 4.8 -17.2 10.6 -19.9 19.9 A 44 44 0 0 0 697 498 l -4.3 35.8 c -0.6 4.7 -0.8 10.3 2.7 13.5 c 6.2 5.5 17.2 -1.6 23.8 3.3 c 1.7 1.3 2.8 3.1 4 4.8 c 7.2 9.9 19.6 14.2 31.3 18 a 17.6 17.6 0 0 0 5 1.1 a 17 17 0 0 0 5 -0.9 c 4.8 -1.4 10 -2.9 13.1 -6.9 c 6.3 -8 13.5 -14.8 20.5 -22.2 a 121.3 121.3 0 0 0 9 -10.2 c 4 -5.3 7.1 -11.3 10.2 -17.1 q 9.7 -18.4 19.9 -36.5 A 201.8 201.8 0 0 1 849.4 461 c 4.3 -6 9.3 -11.5 13.4 -17.6 c 6 -8.9 10.3 -18.8 14.3 -28.8 c 1.6 -4 3.2 -8.1 3.8 -12.4 s -0.2 -8.9 -2.8 -12.4 c -8.7 -11.5 -9.1 -27.6 -17.1 -39.6 S 842.4 328.2 829.2 322.4 Z" transform="translate(-28,-92.6)" fill="#e8e8f0"/><path d="M 593.1 357 a 1.9 1.9 0 0 0 -0.9 1.4 c 0 0.5 0.4 0.9 0.6 1.3 c 0.6 1.3 -0.4 2.8 -1.5 3.6 s -2.5 1.6 -3.1 2.9 a 1 1 0 0 0 -0.1 0.6 a 1.2 1.2 0 0 0 0.4 0.7 a 5.5 5.5 0 0 0 2.5 1.6 c 1.5 0.3 3 -0.7 4.3 -1.5 a 23.3 23.3 0 0 1 4.5 -2.2 a 4.4 4.4 0 0 0 1.4 -0.7 a 3 3 0 0 0 0.9 -1.9 c 0.3 -2.5 -1 -4.9 -2.5 -7 C 597.7 353.3 594.7 355.6 593.1 357 Z" transform="translate(-28,-92.6)" fill="#3f3d56"/><rect x="314.1" y="623.5" width="119.6" height="61.3" rx="1.5" transform="translate(310.2,-191.1) rotate(27)" fill="#3f3d56"/><rect x="323.8" y="629.1" width="100.5" height="50" transform="translate(310.2,-191.1) rotate(27)" fill="#e8e8f0"/><ellipse cx="325.8" cy="629.4" rx="1.1" ry="1.6" transform="translate(-410.9,541) rotate(-63)" fill="#e6e8ec"/><ellipse cx="422.8" cy="679.1" rx="1.8" ry="2.7" transform="translate(-402.3,654.4) rotate(-63)" fill="#e6e8ec"/><g opacity="0.1"><path d="M 861.3 195.7 c -2.1 8.8 -6 17.4 -5.5 26.5 a 213.9 213.9 0 0 1 -25.3 5.6 c -4 0.6 -8.6 1 -11.6 -1.8 a 11.4 11.4 0 0 1 -2.6 -4.7 c -3.2 -9.4 -2.1 -20.1 -6.9 -28.7 a 24.1 24.1 0 0 0 -19.8 -12.2 c -3.1 -0.1 -6.7 0.7 -8.3 3.4 a 20.7 20.7 0 0 0 -1.4 4.1 c -2.2 6.7 -11.3 10 -17.3 6.3 c -3 -1.9 -5 -5 -7.8 -7.3 c -3.4 -3 -7.8 -4.5 -11.7 -6.8 c -3.5 -2.1 -5.2 -4.3 -5.9 -6.5 c -0.9 4.8 -1.1 9.2 5.9 13.5 c 3.9 2.4 8.3 3.9 11.7 6.8 c 2.7 2.3 4.7 5.5 7.8 7.3 c 6 3.7 15.1 0.4 17.3 -6.3 a 20.7 20.7 0 0 1 1.4 -4.1 c 1.6 -2.7 5.2 -3.5 8.3 -3.4 a 24.1 24.1 0 0 1 19.8 12.2 c 4.8 8.7 3.7 19.4 6.9 28.7 A 11.4 11.4 0 0 0 819 233 c 2.9 2.8 7.6 2.5 11.6 1.8 a 213.9 213.9 0 0 0 25.3 -5.6 c -0.5 -9.1 3.5 -17.7 5.5 -26.5 a 84 84 0 0 0 1.9 -22 A 77.2 77.2 0 0 1 861.3 195.7 Z" transform="translate(-28,-92.6)"/><path d="M 737.9 163.1 a 15.6 15.6 0 0 0 -1 -9.8 c -1.3 -2.6 -4.8 -4.4 -7.2 -2.7 S 727.6 156 727 159 c -1.1 5.9 -7 9.9 -13 10.9 c -2.8 0.5 -5.9 0.3 -8.1 -1.6 a 11.3 11.3 0 0 1 -3 -4.9 a 46.5 46.5 0 0 1 -2.8 -12.9 a 47.6 47.6 0 0 0 2.8 19.9 a 11.3 11.3 0 0 0 3 4.9 c 2.2 1.8 5.3 2 8.1 1.6 c 5.9 -0.9 11.8 -5 13 -10.9 c 0.6 -3 0.2 -6.6 2.7 -8.3 s 6 0.1 7.2 2.7 A 13.5 13.5 0 0 1 737.9 163.1 Z" transform="translate(-28,-92.6)"/></g></svg>
